<?xml version="1.0" encoding="UTF-8"?>
<svg id="Layer_2" data-name="Layer 2" xmlns="http://www.w3.org/2000/svg" viewBox="0 0 262.88 262.88">
  <defs>
    <style>
      .cls-1 {
        fill: #fff;
      }
    </style>
  </defs>
  <g id="Layer_1-2" data-name="Layer 1">
    <g>
      <rect class="cls-1" width="262.88" height="262.88"/>
      <g>
        <path d="M39.9,81.55h12.45v44.69h-12.45v-44.69Z"/>
        <path d="M82.03,127.12c-3.19,0-6.19-.57-9-1.72-2.81-1.15-5.25-2.75-7.31-4.82-2.06-2.06-3.7-4.51-4.92-7.34s-1.82-5.91-1.82-9.22v-.13c0-3.23.6-6.27,1.79-9.1,1.19-2.83,2.83-5.3,4.92-7.41,2.08-2.11,4.56-3.75,7.44-4.95,2.87-1.19,6.01-1.79,9.42-1.79,2.3,0,4.38.22,6.26.67,1.87.45,3.58,1.09,5.14,1.92,1.55.83,2.96,1.82,4.21,2.97s2.37,2.41,3.35,3.77l-9.32,7.21c-1.28-1.62-2.68-2.89-4.21-3.83-1.53-.94-3.38-1.4-5.55-1.4-1.58,0-3.01.31-4.31.93-1.3.62-2.42,1.46-3.35,2.52-.94,1.06-1.67,2.32-2.2,3.77-.53,1.45-.8,2.98-.8,4.6v.13c0,1.66.26,3.22.8,4.69.53,1.47,1.27,2.73,2.2,3.8.94,1.06,2.05,1.91,3.35,2.52,1.3.62,2.73.93,4.31.93,1.15,0,2.2-.13,3.16-.38.96-.26,1.83-.63,2.62-1.12.79-.49,1.53-1.06,2.23-1.72.7-.66,1.39-1.39,2.07-2.2l9.32,6.64c-1.06,1.45-2.22,2.79-3.48,4.02-1.26,1.24-2.68,2.3-4.28,3.19-1.6.89-3.38,1.6-5.36,2.11s-4.2.77-6.67.77Z"/>
        <path d="M129.59,127.12c-3.45,0-6.64-.61-9.58-1.82s-5.47-2.86-7.6-4.95c-2.13-2.08-3.8-4.53-5.01-7.34s-1.82-5.81-1.82-9v-.13c0-3.19.61-6.2,1.82-9.03,1.21-2.83,2.9-5.3,5.08-7.4,2.17-2.11,4.72-3.77,7.66-4.98s6.13-1.82,9.58-1.82,6.64.61,9.58,1.82c2.94,1.21,5.47,2.86,7.6,4.95,2.13,2.09,3.8,4.53,5.01,7.34,1.21,2.81,1.82,5.81,1.82,9v.13c0,3.19-.61,6.2-1.82,9.03s-2.91,5.3-5.08,7.4c-2.17,2.11-4.72,3.77-7.66,4.98s-6.13,1.82-9.58,1.82ZM129.69,115.95c1.71,0,3.26-.32,4.67-.96s2.6-1.5,3.58-2.58c.98-1.09,1.75-2.35,2.3-3.8.55-1.45.83-2.98.83-4.6v-.13c0-1.62-.28-3.15-.83-4.6-.55-1.45-1.34-2.72-2.37-3.83-1.02-1.11-2.24-1.99-3.65-2.65-1.41-.66-2.97-.99-4.67-.99s-3.25.32-4.64.96-2.58,1.5-3.59,2.58c-1,1.09-1.77,2.35-2.3,3.8-.53,1.45-.8,2.98-.8,4.6v.13c0,1.62.28,3.15.83,4.6.55,1.45,1.33,2.72,2.34,3.83,1,1.11,2.21,1.99,3.62,2.65,1.41.66,2.97.99,4.67.99Z"/>
        <path d="M160.17,81.55h11.58l18.42,23.62v-23.62h12.19v44.69h-10.88l-19.13-24.51v24.51h-12.19v-44.69Z"/>
        <path d="M210.53,81.55h12.45v44.69h-12.45v-44.69Z"/>
        <path d="M55.61,137.55h35.75v10.85h-23.36v7.53h21.13v10.34h-21.13v15.96h-12.38v-44.69Z"/>
        <path d="M97.23,137.55h12.45v44.69h-12.45v-44.69Z"/>
        <path d="M117.85,137.55h12.38v18.13l15.38-18.13h14.68l-16.92,19.21,17.49,25.47h-14.87l-11.24-16.6-4.53,5.04v11.55h-12.38v-44.69Z"/>
        <path d="M179.89,137.23h11.94l19.02,45h-13.28l-3.26-7.98h-17.24l-3.19,7.98h-13.02l19.02-45ZM190.75,164.68l-4.98-12.7-5.04,12.7h10.02Z"/>
      </g>
    </g>
  </g>
</svg>