<?xml version="1.0" encoding="UTF-8"?>
<svg id="Layer_2" xmlns="http://www.w3.org/2000/svg" version="1.1" viewBox="0 0 508.3 135.4">
  <!-- Generator: Adobe Illustrator 30.1.0, SVG Export Plug-In . SVG Version: 2.1.1 Build 136)  -->
  <defs>
    <style>
      .st0 {
        fill: #d9d9d9;
      }

      .st1 {
        fill: #fff;
      }
    </style>
  </defs>
  <g id="Layer_1-2">
    <g>
      <g>
        <path class="st0" d="M107.8,58.3v49.3c0,4.2-3.4,7.5-7.5,7.5H25.1c-4.1,0-7.5-3.4-7.5-7.5v-49.6H7v49.6c0,10,8.1,18.1,18.1,18.1h75.2c10,0,18.1-8.1,18.1-18.1v-49.3h-10.6Z"/>
        <path class="st0" d="M116,62.2H9.4c-5.2,0-9.4-4.2-9.4-9.3v-17.7c0-8.8,7.2-16,16-16h93.4c8.8,0,16,7.2,16,16v17.7c0,5.2-4.2,9.3-9.3,9.3h0ZM10.6,51.6h104v-16.4c0-2.9-2.4-5.3-5.3-5.3H16c-2.9,0-5.3,2.4-5.3,5.3v16.4h0Z"/>
        <path class="st0" d="M86.9,24.5h-10.7v-10.7c0-1.8-1.4-3.2-3.2-3.2h-20.8c-1.8,0-3.2,1.4-3.2,3.2v10.7h-10.7v-10.7c0-7.6,6.2-13.8,13.8-13.8h20.8c7.6,0,13.8,6.2,13.8,13.8v10.7h.2Z"/>
        <g>
          <path class="st1" d="M62.7,46.2h0c6.2,0,11.2,5,11.2,11.2h0c0,6.2-5,11.2-11.2,11.2h0c-6.2,0-11.2-5-11.2-11.2h0c0-6.2,5-11.2,11.2-11.2Z"/>
          <path class="st0" d="M65.3,73.9h-5.3c-7.6,0-13.8-6.2-13.8-13.8v-5.3c0-7.6,6.2-13.8,13.8-13.8h5.3c7.6,0,13.8,6.2,13.8,13.8v5.3c0,7.6-6.2,13.8-13.8,13.8ZM60,51.6c-1.8,0-3.2,1.4-3.2,3.2v5.3c0,1.8,1.4,3.2,3.2,3.2h5.3c1.8,0,3.2-1.4,3.2-3.2v-5.3c0-1.8-1.4-3.2-3.2-3.2h-5.3Z"/>
        </g>
      </g>
      <g>
        <path class="st0" d="M171,109.6c-1.7,1.9-4.2,2.9-7.4,2.9s-5.6-1-7.4-2.9c-1.7-1.9-2.6-4.4-2.6-7.5v-60.9c0-3,.9-5.5,2.6-7.4,1.7-1.9,4.2-2.9,7.4-2.9s5.6,1,7.4,2.9c1.7,1.9,2.6,4.4,2.6,7.4v20.7h10.9l16.1-26c1-1.7,2.2-3,3.4-3.8s2.9-1.2,5-1.2,5.2,1,7.1,2.9c2,1.9,2.9,4.2,2.9,6.8s-.4,3.7-1.3,5l-17,25.5,17.9,26.6c1,1.6,1.4,3.2,1.4,5,0,2.7-1,5-3.1,6.9-2.1,2-4.5,2.9-7.3,2.9s-3.7-.4-5-1.3c-1.3-.8-2.4-2.2-3.4-3.9l-17.1-26.4h-10.5v21.2c0,3.1-.9,5.6-2.6,7.5h0Z"/>
        <path class="st0" d="M243.9,45c-2.3,2.1-5.3,3.2-9,3.2s-6.8-1.1-9.1-3.2c-2.3-2.1-3.4-5.1-3.4-8.8s1.1-6.6,3.4-8.7c2.3-2.1,5.3-3.2,9.1-3.2s6.7,1,9,3.2,3.4,5,3.4,8.7-1.1,6.6-3.4,8.8ZM242.4,109.6c-1.7,1.9-4.1,2.9-7.3,2.9s-5.6-1-7.4-2.9c-1.8-2-2.7-4.4-2.7-7.5v-37.1c0-3,.9-5.5,2.6-7.4,1.7-1.9,4.2-2.9,7.5-2.9s5.6.9,7.3,2.8c1.7,1.9,2.6,4.4,2.6,7.5v37.1c0,3.1-.9,5.6-2.6,7.5h0Z"/>
        <path class="st0" d="M287.2,94.5c1.7,0,3.1.7,4.3,2s1.8,3.1,1.8,5.4-.7,4.9-2.1,6.7c-2.6,3.2-7.1,4.8-13.4,4.8s-12-2.1-15.4-6.2-5-9.5-5-16.1v-19.2h-1.4c-2.4,0-4.3-.8-5.9-2.3-1.6-1.6-2.3-3.6-2.3-6s.8-4.3,2.3-5.9,3.5-2.3,5.9-2.3h2.4c.2-1.3.5-2.5,1-3.8,1.9-6.4,5.1-9.5,9.9-9.5s8.1,3,8.1,9v4.3h6.4c2.4,0,4.3.8,5.8,2.3s2.3,3.5,2.3,5.9-.8,4.4-2.3,6-3.5,2.3-5.8,2.3h-6.4v17c0,2.2.3,3.9.8,5.1s1.6,1.8,3.3,1.8,1.8-.2,2.8-.6c1.1-.4,2-.6,2.9-.6h0Z"/>
        <path class="st0" d="M316.1,45c-2.2,2.1-5.3,3.2-9,3.2s-6.8-1.1-9.1-3.2c-2.3-2.1-3.4-5.1-3.4-8.8s1.1-6.6,3.4-8.7,5.3-3.2,9.1-3.2,6.7,1,9,3.2,3.4,5,3.4,8.7-1.1,6.6-3.4,8.8ZM314.5,109.6c-1.7,1.9-4.1,2.9-7.3,2.9s-5.6-1-7.4-2.9c-1.8-2-2.7-4.4-2.7-7.5v-37.1c0-3,.9-5.5,2.6-7.4s4.2-2.9,7.5-2.9,5.6.9,7.3,2.8c1.7,1.9,2.5,4.4,2.5,7.5v37.1c0,3.1-.9,5.6-2.5,7.5Z"/>
        <path class="st0" d="M375.7,55.4c2.7,0,4.7.8,6.1,2.3s2.1,3.5,2.1,6v38.4c0,3.1-.9,5.6-2.5,7.5-1.7,1.9-4.1,2.9-7.3,2.9s-5.6-1-7.4-2.9c-1.8-2-2.7-4.4-2.7-7.5v-30.2h-13.8v53.2c0,3-.9,5.5-2.5,7.4-1.7,1.9-4.1,2.9-7.3,2.9s-5.8-.9-7.5-2.8c-1.7-1.9-2.6-4.4-2.6-7.5l-.2-53.2h-.3c-2.4,0-4.3-.8-5.9-2.3-1.5-1.6-2.3-3.6-2.3-6s.8-4.3,2.3-5.9,3.5-2.3,5.9-2.3h.3c.7-10.7,3.7-18.2,9.1-22.6,5.4-4.4,12.6-6.5,21.6-6.5s15,1.9,19.2,5.6c2.1,1.8,3.2,3.9,3.2,6.3s-.7,4.3-2,5.5c-1.4,1.3-3,1.9-5,1.9s-4.1-.5-7.1-1.6-5.8-1.6-8.6-1.6c-6.1,0-9.4,4.3-10,13h25.4-.2Z"/>
        <path class="st0" d="M419.7,113.4c-9.5,0-17-2.8-22.3-8.3s-8-12.7-8-21.5,2.8-16.2,8.5-21.7,13.2-8.2,22.7-8.2,11.5,1.2,15,3.4c3,2.1,4.5,4.8,4.5,8.2s-.7,3.8-2,5.3c-1.3,1.4-3.1,2.2-5.3,2.2s-3.2-.4-5.3-1.2c-2.1-.8-4.2-1.2-6.2-1.2-3.8,0-6.7,1.2-8.9,3.7-2.1,2.5-3.2,5.6-3.2,9.5s1.1,6.9,3.2,9.4,5.1,3.7,8.9,3.7,4.1-.4,6.2-1.2c2.1-.8,3.9-1.2,5.3-1.2,2.2,0,4,.7,5.3,2.2,1.3,1.4,2,3.2,2,5.2,0,3.5-1.6,6.2-4.9,8.2-3.5,2.3-8.6,3.4-15.4,3.4h-.1Z"/>
        <path class="st0" d="M467.4,113.5c-7.8,0-14-2.8-18.6-8.3s-6.9-12.7-6.9-21.6,2.4-16.1,7.1-21.6,11.1-8.3,19.1-8.3,14.1,3.2,17.4,9.7h.2v-1.3c.1-2.2.9-4,2.3-5.4s3.3-2,5.8-2,4.6.8,6,2.3,2.1,3.5,2.1,6v26.9c0,1.4.1,2.5.3,3.3.2.8.4,1.3.7,1.6.2.3.7.7,1.4,1.3,2.7,1.9,4,4.4,4,7.5s-1,5.3-2.9,7.2c-1.9,1.8-4.6,2.7-8,2.7s-6.3-1-8.3-3-3.2-4-3.8-6h-.2c-1.6,2.9-4,5.1-7.1,6.7s-6.6,2.3-10.6,2.3h0ZM465.2,93c1.9,2.3,4.4,3.5,7.6,3.5s5.7-1.1,7.5-3.4,2.7-5.4,2.7-9.6-.9-7.3-2.7-9.5c-1.8-2.2-4.3-3.3-7.6-3.3s-5.6,1.2-7.5,3.4-2.8,5.4-2.8,9.4.9,7,2.8,9.4h0Z"/>
      </g>
    </g>
  </g>
</svg>